<?xml version="1.0" encoding="utf-8" standalone="no"?>
<!DOCTYPE svg PUBLIC "-//W3C//DTD SVG 1.1//EN"
  "http://www.w3.org/Graphics/SVG/1.1/DTD/svg11.dtd">
<svg xmlns:xlink="http://www.w3.org/1999/xlink" width="583.2pt" height="583.2pt" viewBox="0 0 583.2 583.2" xmlns="http://www.w3.org/2000/svg" version="1.1">
 <metadata>
  <rdf:RDF xmlns:dc="http://purl.org/dc/elements/1.1/" xmlns:cc="http://creativecommons.org/ns#" xmlns:rdf="http://www.w3.org/1999/02/22-rdf-syntax-ns#">
   <cc:Work>
    <dc:type rdf:resource="http://purl.org/dc/dcmitype/StillImage"/>
    <dc:date>2026-01-24T15:11:08.095135</dc:date>
    <dc:format>image/svg+xml</dc:format>
    <dc:creator>
     <cc:Agent>
      <dc:title>Matplotlib v3.7.5, https://matplotlib.org/</dc:title>
     </cc:Agent>
    </dc:creator>
   </cc:Work>
  </rdf:RDF>
 </metadata>
 <defs>
  <style type="text/css">*{stroke-linejoin: round; stroke-linecap: butt}</style>
 </defs>
 <g id="figure_1">
  <g id="patch_1">
   <path d="M 0 583.2 
L 583.2 583.2 
L 583.2 0 
L 0 0 
z
" style="fill: #ffffff"/>
  </g>
  <g id="axes_1">
   <g id="line2d_1">
    <path d="M 291.6 291.6 
L 291.6 130.32 
" clip-path="url(#p0990d8e85d)" style="fill: none; stroke: #000000; stroke-width: 6; stroke-linecap: round"/>
   </g>
   <g id="text_1">
    <!-- $\left|\mathbf{20}\,e^{\mathbf{2}\,i^{\,\mathbf{6}\pi}}\right| - \left|i!\right|$ -->
    <g transform="translate(249.587807 122.037858) scale(0.13 -0.13)">
     <defs>
      <path id="CMEX10-c" d="M 928 -3738 
C 928 -3840 928 -3974 1062 -3974 
C 1203 -3974 1203 -3846 1203 -3738 
L 1203 -102 
C 1203 0 1203 134 1069 134 
C 928 134 928 6 928 -102 
L 928 -3738 
z
" transform="scale(0.015625)"/>
      <path id="CMBX12-32" d="M 3232 1368 
L 2963 1368 
C 2944 1234 2899 858 2803 795 
C 2752 750 2253 750 2157 750 
L 1165 750 
C 1408 954 1990 1438 2086 1509 
C 2797 2038 3232 2362 3232 2974 
C 3232 3725 2547 4178 1702 4178 
C 979 4178 358 3770 358 3165 
C 358 2827 634 2732 781 2732 
C 979 2732 1210 2865 1210 3159 
C 1210 3427 1011 3560 813 3586 
C 1069 3879 1408 3904 1542 3904 
C 2131 3904 2413 3427 2413 2968 
C 2413 2471 2074 2013 1811 1739 
L 422 293 
C 358 235 358 223 358 108 
L 358 0 
L 3046 0 
L 3232 1368 
z
" transform="scale(0.015625)"/>
      <path id="CMBX12-30" d="M 3309 2038 
C 3309 2648 3309 4178 1798 4178 
C 282 4178 282 2654 282 2038 
C 282 1428 282 -64 1792 -64 
C 3302 -64 3309 1409 3309 2038 
z
M 1798 146 
C 1594 146 1440 228 1312 362 
C 1152 521 1050 621 1050 2114 
C 1050 2559 1050 2964 1101 3295 
C 1190 3924 1651 3968 1792 3968 
C 1997 3968 2394 3873 2483 3340 
C 2541 3015 2541 2501 2541 2114 
C 2541 615 2445 527 2253 336 
C 2125 209 1952 146 1798 146 
z
" transform="scale(0.015625)"/>
      <path id="CMMI12-65" d="M 1146 1479 
C 1318 1479 1754 1479 2061 1595 
C 2547 1783 2592 2158 2592 2274 
C 2592 2558 2349 2816 1926 2816 
C 1254 2816 288 2210 288 1073 
C 288 402 672 -64 1254 -64 
C 2125 -64 2675 609 2675 692 
C 2675 730 2637 762 2611 762 
C 2592 762 2586 756 2528 699 
C 2118 159 1510 64 1267 64 
C 902 64 710 350 710 822 
C 710 911 710 1071 806 1479 
L 1146 1479 
z
M 838 1600 
C 1114 2592 1722 2689 1926 2689 
C 2208 2689 2400 2522 2400 2277 
C 2400 1600 1376 1600 1107 1600 
L 838 1600 
z
" transform="scale(0.015625)"/>
      <path id="CMMI12-69" d="M 1811 913 
C 1811 945 1786 971 1747 971 
C 1690 971 1683 952 1651 843 
C 1485 262 1222 64 1011 64 
C 934 64 845 83 845 275 
C 845 447 922 639 992 830 
L 1440 2018 
C 1459 2069 1504 2184 1504 2305 
C 1504 2574 1312 2816 998 2816 
C 410 2816 173 1890 173 1839 
C 173 1814 198 1782 243 1782 
C 301 1782 307 1807 333 1896 
C 486 2428 730 2682 979 2682 
C 1037 2682 1146 2682 1146 2478 
C 1146 2312 1062 2101 1011 1961 
L 563 773 
C 525 671 486 568 486 453 
C 486 166 685 -64 992 -64 
C 1581 -64 1811 869 1811 913 
z
M 1760 4013 
C 1760 4109 1683 4224 1542 4224 
C 1395 4224 1229 4083 1229 3917 
C 1229 3758 1363 3707 1440 3707 
C 1613 3707 1760 3873 1760 4013 
z
" transform="scale(0.015625)"/>
      <path id="CMBX12-36" d="M 1114 2320 
C 1114 2709 1133 3106 1312 3450 
C 1453 3719 1779 3968 2195 3968 
C 2317 3968 2547 3949 2701 3789 
C 2458 3764 2355 3585 2355 3412 
C 2355 3181 2528 3034 2733 3034 
C 2899 3034 3110 3143 3110 3424 
C 3110 3807 2854 4197 2182 4197 
C 1382 4197 301 3699 301 2035 
C 301 1607 301 -64 1818 -64 
C 2662 -64 3290 433 3290 1325 
C 3290 2217 2669 2688 1907 2688 
C 1779 2688 1370 2688 1114 2147 
L 1114 2320 
z
M 1811 190 
C 1402 190 1242 534 1216 585 
C 1126 796 1126 1306 1126 1363 
C 1126 2147 1466 2479 1843 2479 
C 2477 2479 2477 1969 2477 1331 
C 2477 700 2477 190 1811 190 
z
" transform="scale(0.015625)"/>
      <path id="CMMI12-19" d="M 1658 2408 
L 2381 2408 
C 2208 1692 2099 1226 2099 716 
C 2099 626 2099 -64 2362 -64 
C 2496 -64 2611 57 2611 166 
C 2611 197 2611 210 2566 306 
C 2394 747 2394 1296 2394 1341 
C 2394 1379 2394 1832 2528 2408 
L 3245 2408 
C 3328 2408 3539 2408 3539 2612 
C 3539 2752 3418 2752 3302 2752 
L 1197 2752 
C 1050 2752 832 2752 538 2440 
C 371 2254 166 1916 166 1878 
C 166 1840 198 1827 237 1827 
C 282 1827 288 1846 320 1884 
C 653 2408 986 2408 1146 2408 
L 1510 2408 
C 1370 1929 1210 1373 685 256 
C 634 154 634 140 634 102 
C 634 -32 749 -64 806 -64 
C 992 -64 1043 102 1120 370 
C 1222 696 1222 709 1286 964 
L 1658 2408 
z
" transform="scale(0.015625)"/>
      <path id="CMSY10-0" d="M 4218 1472 
C 4326 1472 4442 1472 4442 1600 
C 4442 1728 4326 1728 4218 1728 
L 755 1728 
C 646 1728 531 1728 531 1600 
C 531 1472 646 1472 755 1472 
L 4218 1472 
z
" transform="scale(0.015625)"/>
      <path id="CMSY10-6a" d="M 1018 4570 
C 1018 4685 1018 4800 890 4800 
C 762 4800 762 4685 762 4570 
L 762 -1370 
C 762 -1485 762 -1600 890 -1600 
C 1018 -1600 1018 -1485 1018 -1370 
L 1018 4570 
z
" transform="scale(0.015625)"/>
      <path id="CMR17-21" d="M 1062 4259 
C 1062 4442 909 4512 800 4512 
C 691 4512 538 4442 538 4259 
L 736 1202 
C 742 1119 742 1088 800 1088 
C 858 1088 858 1119 864 1201 
L 1062 4259 
z
M 1062 261 
C 1062 401 947 522 800 522 
C 659 522 538 408 538 261 
C 538 121 653 0 800 0 
C 941 0 1062 115 1062 261 
z
" transform="scale(0.015625)"/>
     </defs>
     <use xlink:href="#CMEX10-c" transform="translate(0 114.571273) scale(0.996264)"/>
     <use xlink:href="#CMEX10-c" transform="translate(0 54.794825) scale(0.996264)"/>
     <use xlink:href="#CMEX10-c" transform="translate(0 -4.981624) scale(0.996264)"/>
     <use xlink:href="#CMBX12-32" transform="translate(33.208856 0) scale(0.996264)"/>
     <use xlink:href="#CMBX12-30" transform="translate(89.248707 0) scale(0.996264)"/>
     <use xlink:href="#CMMI12-65" transform="translate(161.892962 0) scale(0.996264)"/>
     <use xlink:href="#CMBX12-32" transform="translate(207.104963 36.153639) scale(0.697382)"/>
     <use xlink:href="#CMMI12-69" transform="translate(257.955701 36.153639) scale(0.697382)"/>
     <use xlink:href="#CMBX12-36" transform="translate(289.552788 61.461065) scale(0.498132)"/>
     <use xlink:href="#CMMI12-19" transform="translate(317.572713 61.461065) scale(0.498132)"/>
     <use xlink:href="#CMEX10-c" transform="translate(348.02427 114.571273) scale(0.996264)"/>
     <use xlink:href="#CMEX10-c" transform="translate(348.02427 54.794825) scale(0.996264)"/>
     <use xlink:href="#CMEX10-c" transform="translate(348.02427 -4.981624) scale(0.996264)"/>
     <use xlink:href="#CMSY10-0" transform="translate(403.372333 0) scale(0.996264)"/>
     <use xlink:href="#CMSY10-6a" transform="translate(502.999008 0) scale(0.996264)"/>
     <use xlink:href="#CMMI12-69" transform="translate(530.673092 0) scale(0.996264)"/>
     <use xlink:href="#CMR17-21" transform="translate(563.951694 0) scale(0.996264)"/>
     <use xlink:href="#CMSY10-6a" transform="translate(588.822753 0) scale(0.996264)"/>
    </g>
   </g>
   <g id="text_2">
    <!-- $\left.\frac{\partial^2 e^{i x}}{\partial x^2}\right|_{x=\pi}$ -->
    <g transform="translate(412.84427 167.866033) scale(0.13 -0.13)">
     <defs>
      <path id="CMMI12-40" d="M 2906 2145 
C 2867 2504 2643 2935 2067 2935 
C 1165 2935 243 2017 243 996 
C 243 604 512 -134 1382 -134 
C 2893 -134 3539 2067 3539 2944 
C 3539 3866 3021 4576 2202 4576 
C 1274 4576 998 3763 998 3590 
C 998 3533 1037 3392 1216 3392 
C 1440 3392 1536 3597 1536 3706 
C 1536 3904 1338 3904 1254 3904 
C 1517 4378 2003 4422 2176 4422 
C 2739 4422 3098 3975 3098 3262 
C 3098 2853 2976 2380 2912 2145 
L 2906 2145 
z
M 1402 38 
C 800 38 698 514 698 784 
C 698 1066 877 1728 973 1965 
C 1056 2158 1421 2807 2086 2807 
C 2669 2807 2803 2299 2803 1953 
C 2803 1477 2387 38 1402 38 
z
" transform="scale(0.015625)"/>
      <path id="CMR17-32" d="M 2669 989 
L 2554 989 
C 2490 536 2438 459 2413 420 
C 2381 369 1920 369 1830 369 
L 602 369 
C 832 619 1280 1072 1824 1597 
C 2214 1967 2669 2402 2669 3035 
C 2669 3790 2067 4224 1395 4224 
C 691 4224 262 3604 262 3030 
C 262 2780 448 2748 525 2748 
C 589 2748 781 2787 781 3010 
C 781 3207 614 3264 525 3264 
C 486 3264 448 3258 422 3245 
C 544 3790 915 4058 1306 4058 
C 1862 4058 2227 3617 2227 3035 
C 2227 2479 1901 2000 1536 1584 
L 262 146 
L 262 0 
L 2515 0 
L 2669 989 
z
" transform="scale(0.015625)"/>
      <path id="CMMI12-78" d="M 3034 2606 
C 2829 2567 2752 2414 2752 2293 
C 2752 2139 2874 2088 2963 2088 
C 3155 2088 3290 2254 3290 2427 
C 3290 2695 2982 2816 2714 2816 
C 2323 2816 2106 2433 2048 2312 
C 1901 2816 1504 2816 1389 2816 
C 736 2816 390 1980 390 1839 
C 390 1814 416 1782 461 1782 
C 512 1782 525 1820 538 1846 
C 755 2555 1184 2689 1370 2689 
C 1658 2689 1715 2420 1715 2267 
C 1715 2127 1677 1980 1600 1673 
L 1382 798 
C 1286 415 1101 64 762 64 
C 730 64 570 64 435 147 
C 666 192 717 383 717 460 
C 717 588 621 664 499 664 
C 346 664 179 530 179 326 
C 179 57 480 -64 755 -64 
C 1062 -64 1280 179 1414 441 
C 1517 64 1837 -64 2074 -64 
C 2726 -64 3072 773 3072 913 
C 3072 945 3046 971 3008 971 
C 2950 971 2944 939 2925 888 
C 2752 326 2381 64 2093 64 
C 1869 64 1747 230 1747 492 
C 1747 632 1773 734 1875 1156 
L 2099 2024 
C 2195 2408 2413 2689 2707 2689 
C 2720 2689 2899 2689 3034 2606 
z
" transform="scale(0.015625)"/>
      <path id="CMR17-3d" d="M 4115 2017 
C 4211 2017 4307 2017 4307 2125 
C 4307 2240 4198 2240 4090 2240 
L 512 2240 
C 403 2240 294 2240 294 2125 
C 294 2017 390 2017 486 2017 
L 4115 2017 
z
M 4090 896 
C 4198 896 4307 896 4307 1011 
C 4307 1119 4211 1119 4115 1119 
L 486 1119 
C 390 1119 294 1119 294 1011 
C 294 896 403 896 512 896 
L 4090 896 
z
" transform="scale(0.015625)"/>
     </defs>
     <use xlink:href="#CMMI12-40" transform="translate(0 39.226102) scale(0.697382)"/>
     <use xlink:href="#CMR17-32" transform="translate(39.84071 64.533527) scale(0.498132)"/>
     <use xlink:href="#CMMI12-65" transform="translate(63.18408 39.226102) scale(0.697382)"/>
     <use xlink:href="#CMMI12-69" transform="translate(94.832337 64.533527) scale(0.498132)"/>
     <use xlink:href="#CMMI12-78" transform="translate(111.47163 64.533527) scale(0.498132)"/>
     <use xlink:href="#CMMI12-40" transform="translate(18.849526 -34.355253) scale(0.697382)"/>
     <use xlink:href="#CMMI12-78" transform="translate(58.690236 -34.355253) scale(0.697382)"/>
     <use xlink:href="#CMR17-32" transform="translate(97.493895 -14.20868) scale(0.498132)"/>
     <use xlink:href="#CMEX10-c" transform="translate(140.882305 114.571273) scale(0.996264)"/>
     <use xlink:href="#CMEX10-c" transform="translate(140.882305 54.794825) scale(0.996264)"/>
     <use xlink:href="#CMEX10-c" transform="translate(140.882305 -4.981624) scale(0.996264)"/>
     <use xlink:href="#CMMI12-78" transform="translate(174.091161 -68.244982) scale(0.697382)"/>
     <use xlink:href="#CMR17-3d" transform="translate(212.894821 -68.244982) scale(0.697382)"/>
     <use xlink:href="#CMMI12-19" transform="translate(263.094952 -68.244982) scale(0.697382)"/>
     <path d="M 0 22.914133 
L 139.686792 22.914133 
L 139.686792 26.899083 
L 0 26.899083 
L 0 22.914133 
z
"/>
    </g>
   </g>
   <g id="text_3">
    <!-- $\left|e^{i} - i^{e}\right|$ -->
    <g transform="translate(442.807981 237.237858) scale(0.13 -0.13)">
     <use xlink:href="#CMEX10-c" transform="translate(0 84.683049) scale(0.996264)"/>
     <use xlink:href="#CMEX10-c" transform="translate(0 24.9066) scale(0.996264)"/>
     <use xlink:href="#CMMI12-65" transform="translate(33.208856 0) scale(0.996264)"/>
     <use xlink:href="#CMMI12-69" transform="translate(78.420857 36.153639) scale(0.697382)"/>
     <use xlink:href="#CMSY10-0" transform="translate(124.353103 0) scale(0.996264)"/>
     <use xlink:href="#CMMI12-69" transform="translate(223.979778 0) scale(0.996264)"/>
     <use xlink:href="#CMMI12-65" transform="translate(257.25838 36.153639) scale(0.697382)"/>
     <use xlink:href="#CMEX10-c" transform="translate(289.404768 84.683049) scale(0.996264)"/>
     <use xlink:href="#CMEX10-c" transform="translate(289.404768 24.9066) scale(0.996264)"/>
    </g>
   </g>
   <g id="text_4">
    <!-- $\frac{\frac{\frac{\phi}{e} + e^e}{\pi} + \pi}{e}$ -->
    <g transform="translate(503.662204 299.646569) scale(0.13 -0.13)">
     <defs>
      <path id="CMMI12-1e" d="M 2752 4390 
C 2752 4448 2707 4448 2688 4448 
C 2630 4448 2624 4435 2598 4326 
L 2253 2939 
C 2234 2856 2227 2849 2221 2843 
C 2214 2830 2170 2824 2157 2824 
C 1107 2734 301 1864 301 1057 
C 301 361 832 -64 1498 -64 
C 1446 -261 1402 -463 1350 -659 
C 1261 -995 1210 -1204 1210 -1229 
C 1210 -1241 1210 -1280 1274 -1280 
C 1293 -1280 1318 -1280 1331 -1254 
C 1344 -1241 1382 -1089 1408 -1008 
L 1645 -64 
C 2739 -64 3571 854 3571 1680 
C 3571 2343 3085 2816 2374 2816 
L 2752 4390 
z
M 2336 2701 
C 2758 2701 3181 2463 3181 1828 
C 3181 1097 2675 128 1677 50 
L 2336 2701 
z
M 1530 50 
C 1216 50 691 220 691 938 
C 691 1761 1274 2676 2195 2676 
L 1530 50 
z
" transform="scale(0.015625)"/>
      <path id="CMR17-2b" d="M 2413 1472 
L 4109 1472 
C 4198 1472 4307 1472 4307 1580 
C 4307 1695 4205 1695 4109 1695 
L 2413 1695 
L 2413 3386 
C 2413 3475 2413 3584 2304 3584 
C 2189 3584 2189 3482 2189 3386 
L 2189 1695 
L 493 1695 
C 403 1695 294 1695 294 1587 
C 294 1472 397 1472 493 1472 
L 2189 1472 
L 2189 -218 
C 2189 -307 2189 -416 2298 -416 
C 2413 -416 2413 -314 2413 -218 
L 2413 1472 
z
" transform="scale(0.015625)"/>
     </defs>
     <use xlink:href="#CMMI12-1e" transform="translate(2.391028 118.856838) scale(0.498132)"/>
     <use xlink:href="#CMMI12-65" transform="translate(5.521576 76.551342) scale(0.498132)"/>
     <use xlink:href="#CMR17-2b" transform="translate(32.453632 93.728976) scale(0.498132)"/>
     <use xlink:href="#CMMI12-65" transform="translate(68.311018 93.728976) scale(0.498132)"/>
     <use xlink:href="#CMMI12-65" transform="translate(90.917011 111.805795) scale(0.498132)"/>
     <use xlink:href="#CMMI12-19" transform="translate(42.880686 30.884047) scale(0.498132)"/>
     <use xlink:href="#CMR17-2b" transform="translate(115.21665 54.932614) scale(0.697382)"/>
     <use xlink:href="#CMMI12-19" transform="translate(165.416781 54.932614) scale(0.697382)"/>
     <use xlink:href="#CMMI12-65" transform="translate(87.502873 -34.355253) scale(0.697382)"/>
     <path d="M 2.391028 105.186042 
L 31.258118 105.186042 
L 31.258118 107.17851 
L 2.391028 107.17851 
L 2.391028 105.186042 
z
"/>
     <path d="M 1.195514 70.97244 
L 114.021136 70.97244 
L 114.021136 73.761891 
L 1.195514 73.761891 
L 1.195514 70.97244 
z
"/>
     <path d="M 0 22.914133 
L 206.654003 22.914133 
L 206.654003 26.899083 
L 0 26.899083 
L 0 22.914133 
z
"/>
    </g>
   </g>
   <g id="text_5">
    <!-- $\frac{\Re\binom{e \pi}{\pi i} + \Im\binom{e \pi}{\pi i}}{5}$ -->
    <g transform="translate(435.430951 355.450091) scale(0.13 -0.13)">
     <defs>
      <path id="CMSY10-3c" d="M 3667 4500 
C 3615 4590 3609 4596 3519 4596 
C 3078 4596 2296 4413 1963 3855 
C 1867 4039 1554 4502 1068 4502 
C 633 4502 352 4099 352 3734 
C 352 3491 500 3331 679 3145 
C 1038 2787 1038 2684 1038 2448 
C 1038 2070 1000 1686 724 1686 
C 550 1686 518 1923 512 2038 
C 512 2089 505 2140 429 2140 
C 352 2140 352 2070 352 2044 
C 352 1929 410 1545 724 1545 
C 1243 1545 1243 2364 1243 2512 
C 1243 2704 1230 2947 794 3350 
C 615 3510 544 3606 544 3747 
C 544 4022 729 4361 1062 4361 
C 1394 4361 1650 3863 1650 3116 
L 1650 1233 
C 1650 1176 1650 1 1234 1 
C 998 1 762 197 627 598 
C 647 598 775 642 775 700 
C 775 738 724 769 704 769 
C 678 769 595 738 569 726 
C 563 764 530 833 485 833 
C 447 833 402 782 402 750 
C 402 726 415 687 427 668 
C 389 662 293 623 293 573 
C 293 541 331 503 363 503 
C 382 503 459 528 478 541 
C 683 -13 1010 -140 1234 -140 
C 1688 -140 2194 446 2194 1752 
L 2194 2222 
L 2931 2222 
L 3014 801 
C 3014 757 2989 713 2989 591 
C 2989 210 3303 -140 3731 -140 
C 3814 -140 3827 -140 3949 -50 
L 4410 308 
C 4486 372 4493 379 4493 404 
C 4493 455 4390 494 4371 494 
C 4339 494 4109 308 3821 71 
C 3603 211 3526 420 3526 592 
C 3526 713 3552 732 3552 801 
C 3552 986 3520 1316 3514 1513 
C 3501 1643 3475 2162 3469 2253 
C 3827 2369 4525 2785 4538 2791 
C 4557 2810 4570 2824 4570 2856 
C 4570 2869 4531 2946 4525 2952 
L 3667 4500 
z
M 4030 2743 
C 3442 2420 3307 2420 3122 2420 
L 2194 2420 
L 2194 2730 
C 2194 3167 2136 3412 2066 3609 
C 2290 4223 3115 4338 3122 4338 
C 3134 4338 3173 4274 3179 4268 
L 4030 2743 
z
" transform="scale(0.015625)"/>
      <path id="CMR17-28" d="M 1958 -1561 
C 1958 -1555 1958 -1542 1939 -1523 
C 1645 -1224 858 -407 858 1581 
C 858 3569 1632 4379 1946 4697 
C 1946 4704 1958 4717 1958 4736 
C 1958 4755 1939 4768 1914 4768 
C 1843 4768 1299 4296 986 3594 
C 666 2887 576 2199 576 1588 
C 576 1128 621 351 1005 -471 
C 1312 -1135 1837 -1600 1914 -1600 
C 1946 -1600 1958 -1587 1958 -1561 
z
" transform="scale(0.015625)"/>
      <path id="CMR17-29" d="M 1683 1581 
C 1683 2040 1638 2817 1254 3639 
C 947 4303 422 4768 346 4768 
C 326 4768 301 4761 301 4729 
C 301 4717 307 4710 314 4697 
C 621 4378 1402 3568 1402 1584 
C 1402 -407 627 -1217 314 -1537 
C 307 -1549 301 -1556 301 -1568 
C 301 -1600 326 -1600 346 -1600 
C 416 -1600 960 -1128 1274 -426 
C 1594 281 1683 969 1683 1581 
z
" transform="scale(0.015625)"/>
      <path id="CMSY10-3d" d="M 1837 2150 
C 1837 2195 1798 2214 1773 2221 
C 806 2278 550 2918 550 3296 
C 550 3936 1133 4371 1715 4371 
C 2080 4371 2285 4143 2560 3799 
C 2848 3437 3155 3050 3706 3050 
C 4154 3050 4435 3254 4435 3495 
C 4435 3578 4371 3578 4333 3578 
C 4250 3578 4243 3546 4237 3490 
C 4186 3191 3731 3191 3718 3191 
C 3629 3191 3590 3210 3488 3394 
C 2918 4448 2010 4512 1741 4512 
C 966 4512 352 3974 352 3296 
C 352 2509 1139 2080 1728 2080 
C 1766 2080 1837 2080 1837 2150 
z
M 525 1171 
C 410 1171 352 1171 352 1101 
C 352 1088 352 1037 410 1030 
C 634 1018 838 998 1338 550 
C 2016 -70 2157 -70 2669 -70 
C 3002 -70 3270 -70 3584 147 
C 3808 301 3994 557 3994 883 
C 3994 1114 3904 1248 3667 1504 
C 3418 1786 3398 1894 3398 2042 
C 3398 2317 3469 2618 3706 2618 
C 3712 2618 4179 2618 4237 2170 
C 4243 2131 4250 2086 4333 2086 
C 4416 2086 4435 2118 4435 2176 
C 4435 2451 4147 2758 3693 2758 
C 3232 2758 2861 2426 2861 2022 
C 2861 1766 3008 1606 3200 1389 
C 3437 1120 3456 1018 3456 883 
C 3456 288 2797 77 2682 77 
C 2643 77 2464 128 2259 275 
C 2144 358 1965 525 1939 544 
C 1472 986 1229 1171 781 1171 
L 525 1171 
z
" transform="scale(0.015625)"/>
      <path id="CMR17-35" d="M 730 3692 
C 794 3666 1056 3584 1325 3584 
C 1920 3584 2246 3911 2432 4100 
C 2432 4157 2432 4192 2394 4192 
C 2387 4192 2374 4192 2323 4163 
C 2099 4058 1837 3973 1517 3973 
C 1325 3973 1037 3999 723 4139 
C 653 4171 640 4171 634 4171 
C 602 4171 595 4164 595 4037 
L 595 2203 
C 595 2089 595 2057 659 2057 
C 691 2057 704 2070 736 2114 
C 941 2401 1222 2522 1542 2522 
C 1766 2522 2246 2382 2246 1289 
C 2246 1085 2246 715 2054 421 
C 1894 159 1645 25 1370 25 
C 947 25 518 320 403 814 
C 429 807 480 795 506 795 
C 589 795 749 840 749 1038 
C 749 1210 627 1280 506 1280 
C 358 1280 262 1190 262 1011 
C 262 454 704 -128 1382 -128 
C 2042 -128 2669 440 2669 1264 
C 2669 2030 2170 2624 1549 2624 
C 1222 2624 947 2503 730 2274 
L 730 3692 
z
" transform="scale(0.015625)"/>
     </defs>
     <use xlink:href="#CMSY10-3c" transform="translate(0 63.176175) scale(0.697382)"/>
     <use xlink:href="#CMR17-28" transform="translate(50.366591 55.707296) scale(0.996264)"/>
     <use xlink:href="#CMMI12-65" transform="translate(85.647359 94.121182) scale(0.498132)"/>
     <use xlink:href="#CMMI12-19" transform="translate(108.253352 94.121182) scale(0.498132)"/>
     <use xlink:href="#CMMI12-19" transform="translate(88.630709 39.127594) scale(0.498132)"/>
     <use xlink:href="#CMMI12-69" transform="translate(118.086001 39.127594) scale(0.498132)"/>
     <use xlink:href="#CMR17-29" transform="translate(137.708644 55.707296) scale(0.996264)"/>
     <use xlink:href="#CMR17-2b" transform="translate(172.989412 63.176175) scale(0.697382)"/>
     <use xlink:href="#CMSY10-3d" transform="translate(223.189544 63.176175) scale(0.697382)"/>
     <use xlink:href="#CMR17-28" transform="translate(273.556135 55.707296) scale(0.996264)"/>
     <use xlink:href="#CMMI12-65" transform="translate(308.836903 94.121182) scale(0.498132)"/>
     <use xlink:href="#CMMI12-19" transform="translate(331.442895 94.121182) scale(0.498132)"/>
     <use xlink:href="#CMMI12-19" transform="translate(311.820252 39.127594) scale(0.498132)"/>
     <use xlink:href="#CMMI12-69" transform="translate(341.275545 39.127594) scale(0.498132)"/>
     <use xlink:href="#CMR17-29" transform="translate(360.898188 55.707296) scale(0.996264)"/>
     <use xlink:href="#CMR17-35" transform="translate(182.097895 -34.355253) scale(0.697382)"/>
     <path d="M 0 22.914133 
L 396.178956 22.914133 
L 396.178956 26.899083 
L 0 26.899083 
L 0 22.914133 
z
"/>
    </g>
   </g>
   <g id="text_6">
    <!-- $\left|e^{i^{\pi}} + i^{\pi^{e}} + \pi^{e^{i}} - e - i - \pi\right|$ -->
    <g transform="translate(360.154291 410.037858) scale(0.13 -0.13)">
     <use xlink:href="#CMEX10-c" transform="translate(0 114.571273) scale(0.996264)"/>
     <use xlink:href="#CMEX10-c" transform="translate(0 54.794825) scale(0.996264)"/>
     <use xlink:href="#CMEX10-c" transform="translate(0 -4.981624) scale(0.996264)"/>
     <use xlink:href="#CMMI12-65" transform="translate(33.208856 0) scale(0.996264)"/>
     <use xlink:href="#CMMI12-69" transform="translate(78.420857 36.153639) scale(0.697382)"/>
     <use xlink:href="#CMMI12-19" transform="translate(101.715764 61.461065) scale(0.498132)"/>
     <use xlink:href="#CMR17-2b" transform="translate(154.306528 0) scale(0.996264)"/>
     <use xlink:href="#CMMI12-69" transform="translate(248.160524 0) scale(0.996264)"/>
     <use xlink:href="#CMMI12-19" transform="translate(281.439125 36.153639) scale(0.697382)"/>
     <use xlink:href="#CMMI12-65" transform="translate(322.676347 61.461065) scale(0.498132)"/>
     <use xlink:href="#CMR17-2b" transform="translate(368.417811 0) scale(0.996264)"/>
     <use xlink:href="#CMMI12-19" transform="translate(462.271806 0) scale(0.996264)"/>
     <use xlink:href="#CMMI12-65" transform="translate(521.182407 36.153639) scale(0.697382)"/>
     <use xlink:href="#CMMI12-69" transform="translate(552.830663 61.461065) scale(0.498132)"/>
     <use xlink:href="#CMSY10-0" transform="translate(592.605427 0) scale(0.996264)"/>
     <use xlink:href="#CMMI12-65" transform="translate(692.232102 0) scale(0.996264)"/>
     <use xlink:href="#CMSY10-0" transform="translate(759.58331 0) scale(0.996264)"/>
     <use xlink:href="#CMMI12-69" transform="translate(859.209985 0) scale(0.996264)"/>
     <use xlink:href="#CMSY10-0" transform="translate(914.627793 0) scale(0.996264)"/>
     <use xlink:href="#CMMI12-19" transform="translate(1014.254468 0) scale(0.996264)"/>
     <use xlink:href="#CMEX10-c" transform="translate(1073.165069 114.571273) scale(0.996264)"/>
     <use xlink:href="#CMEX10-c" transform="translate(1073.165069 54.794825) scale(0.996264)"/>
     <use xlink:href="#CMEX10-c" transform="translate(1073.165069 -4.981624) scale(0.996264)"/>
    </g>
   </g>
   <g id="text_7">
    <!-- $\left|\text{det}\begin{pmatrix}e^{i \pi} &amp; i &amp; \pi \\ e &amp; i^{e \pi} &amp; \pi \\ e &amp; i &amp; \pi^{e i}\end{pmatrix}\right| \% 12$ -->
    <g transform="translate(220.987212 467.798184) scale(0.13 -0.13)">
     <defs>
      <path id="CMSS17-64" d="M 2611 4416 
L 2138 4416 
L 2138 2438 
C 1939 2603 1613 2756 1254 2756 
C 672 2756 211 2131 211 1347 
C 211 562 666 -64 1235 -64 
C 1677 -64 1971 172 2125 306 
L 2125 -13 
L 2611 -13 
L 2611 4416 
z
M 2125 836 
C 2125 747 2125 653 1926 482 
C 1798 375 1645 325 1498 325 
C 1152 325 698 576 698 1340 
C 698 2134 1210 2368 1562 2368 
C 1798 2368 1990 2254 2125 2065 
L 2125 836 
z
" transform="scale(0.015625)"/>
      <path id="CMSS17-65" d="M 2502 1377 
C 2502 1590 2490 2003 2285 2345 
C 2061 2713 1696 2816 1421 2816 
C 755 2816 192 2188 192 1375 
C 192 582 774 -64 1510 -64 
C 1798 -64 2150 19 2470 248 
C 2470 274 2458 414 2451 420 
C 2451 433 2432 630 2432 656 
C 2125 407 1773 325 1517 325 
C 1107 325 666 667 646 1377 
L 2502 1377 
z
M 698 1728 
C 781 2084 1062 2421 1421 2421 
C 1517 2421 1965 2421 2080 1728 
L 698 1728 
z
" transform="scale(0.015625)"/>
      <path id="CMSS17-74" d="M 1069 2368 
L 1901 2368 
L 1901 2737 
L 1069 2737 
L 1069 3520 
L 614 3520 
L 614 2737 
L 109 2737 
L 109 2368 
L 602 2368 
L 602 749 
C 602 384 685 -64 1107 -64 
C 1427 -64 1722 25 2003 172 
L 1901 548 
C 1747 414 1562 337 1363 337 
C 1082 337 1069 696 1069 856 
L 1069 2368 
z
" transform="scale(0.015625)"/>
      <path id="CMEX10-30" d="M 2394 -11328 
C 2534 -11328 2573 -11328 2573 -11238 
C 2586 -6752 3104 -3027 5344 102 
C 5389 160 5389 173 5389 186 
C 5389 250 5344 250 5242 250 
C 5139 250 5126 250 5114 237 
C 5088 218 4275 -717 3629 -2003 
C 2784 -3693 2253 -5632 2016 -7962 
C 1997 -8160 1862 -9491 1862 -11008 
L 1862 -11258 
C 1869 -11328 1907 -11328 2042 -11328 
L 2394 -11328 
z
" transform="scale(0.015625)"/>
      <path id="CMEX10-42" d="M 2574 -109 
C 2574 58 2567 64 2395 64 
L 2043 64 
C 1870 64 1863 58 1863 -109 
L 1863 -3731 
C 1863 -3898 1870 -3904 2043 -3904 
L 2395 -3904 
C 2567 -3904 2574 -3898 2574 -3731 
L 2574 -109 
z
" transform="scale(0.015625)"/>
      <path id="CMEX10-40" d="M 2042 320 
C 1907 320 1869 320 1862 250 
L 1862 0 
C 1862 -3910 2560 -6202 2758 -6848 
C 3194 -8269 3904 -9766 4973 -11085 
C 5069 -11200 5094 -11232 5120 -11245 
C 5133 -11251 5139 -11258 5242 -11258 
C 5344 -11258 5389 -11258 5389 -11194 
C 5389 -11181 5389 -11168 5350 -11110 
C 3219 -8154 2579 -4595 2573 230 
C 2573 320 2534 320 2394 320 
L 2042 320 
z
" transform="scale(0.015625)"/>
      <path id="CMEX10-31" d="M 3731 -11008 
C 3731 -7098 3034 -4806 2835 -4160 
C 2400 -2739 1690 -1242 621 77 
C 525 192 499 224 474 237 
C 461 243 454 250 352 250 
C 256 250 205 250 205 186 
C 205 173 205 160 288 45 
C 2515 -3066 3014 -6906 3021 -11238 
C 3021 -11328 3059 -11328 3200 -11328 
L 3552 -11328 
C 3686 -11328 3725 -11328 3731 -11258 
L 3731 -11008 
z
" transform="scale(0.015625)"/>
      <path id="CMEX10-43" d="M 3733 -109 
C 3733 58 3727 64 3554 64 
L 3202 64 
C 3029 64 3023 58 3023 -109 
L 3023 -3731 
C 3023 -3898 3029 -3904 3202 -3904 
L 3554 -3904 
C 3727 -3904 3733 -3898 3733 -3731 
L 3733 -109 
z
" transform="scale(0.015625)"/>
      <path id="CMEX10-41" d="M 3731 250 
C 3725 320 3686 320 3552 320 
L 3200 320 
C 3059 320 3021 320 3021 230 
C 3021 -429 3014 -1952 2848 -3546 
C 2502 -6854 1651 -9146 250 -11110 
C 205 -11168 205 -11181 205 -11194 
C 205 -11258 256 -11258 352 -11258 
C 454 -11258 467 -11258 480 -11245 
C 506 -11226 1318 -10291 1965 -9005 
C 2810 -7315 3341 -5376 3578 -3046 
C 3597 -2848 3731 -1517 3731 0 
L 3731 250 
z
" transform="scale(0.015625)"/>
      <path id="CMR17-25" d="M 4640 959 
C 4640 1698 4275 2240 3846 2240 
C 3411 2240 2970 1736 2970 959 
C 2970 183 3405 -320 3846 -320 
C 4275 -320 4640 215 4640 959 
z
M 3853 -218 
C 3686 -218 3270 -66 3270 959 
C 3270 1991 3686 2138 3853 2138 
C 4205 2138 4525 1634 4525 959 
C 4525 285 4205 -218 3853 -218 
z
M 4083 4577 
C 4128 4647 4134 4653 4134 4685 
C 4134 4761 4077 4800 4026 4800 
C 3962 4800 3936 4756 3891 4706 
C 3520 4190 3008 4134 2746 4134 
C 2106 4134 1715 4494 1594 4607 
C 1510 4682 1389 4800 1171 4800 
C 736 4800 294 4296 294 3519 
C 294 2743 730 2240 1171 2240 
C 1600 2240 1965 2778 1965 3527 
C 1965 3969 1830 4270 1811 4308 
C 2202 4064 2586 4032 2752 4032 
C 3162 4032 3456 4183 3616 4289 
L 3622 4283 
L 858 -84 
C 800 -174 800 -187 800 -206 
C 800 -276 858 -320 915 -320 
C 973 -320 992 -289 1037 -218 
L 4083 4577 
z
M 1178 2342 
C 1011 2342 595 2494 595 3519 
C 595 4551 1011 4698 1178 4698 
C 1530 4698 1850 4194 1850 3519 
C 1850 2845 1530 2342 1178 2342 
z
" transform="scale(0.015625)"/>
      <path id="CMR17-31" d="M 1702 4058 
C 1702 4192 1696 4192 1606 4192 
C 1357 3916 979 3827 621 3827 
C 602 3827 570 3827 563 3808 
C 557 3795 557 3782 557 3648 
C 755 3648 1088 3686 1344 3839 
L 1344 461 
C 1344 236 1331 160 781 160 
L 589 160 
L 589 0 
C 896 0 1216 0 1523 0 
C 1830 0 2150 0 2458 0 
L 2458 160 
L 2266 160 
C 1715 160 1702 230 1702 458 
L 1702 4058 
z
" transform="scale(0.015625)"/>
     </defs>
     <use xlink:href="#CMEX10-c" transform="translate(0 234.124171) scale(0.996264)"/>
     <use xlink:href="#CMEX10-c" transform="translate(0 174.347722) scale(0.996264)"/>
     <use xlink:href="#CMEX10-c" transform="translate(0 114.571273) scale(0.996264)"/>
     <use xlink:href="#CMEX10-c" transform="translate(0 54.794825) scale(0.996264)"/>
     <use xlink:href="#CMEX10-c" transform="translate(0 -4.981624) scale(0.996264)"/>
     <use xlink:href="#CMEX10-c" transform="translate(0 -64.758073) scale(0.996264)"/>
     <use xlink:href="#CMEX10-c" transform="translate(0 -124.534521) scale(0.996264)"/>
     <use xlink:href="#CMSS17-64" transform="translate(33.208856 0) scale(0.996264)"/>
     <use xlink:href="#CMSS17-65" transform="translate(81.413799 0) scale(0.996264)"/>
     <use xlink:href="#CMSS17-74" transform="translate(123.052621 0) scale(0.996264)"/>
     <use xlink:href="#CMEX10-30" transform="translate(173.488593 230.139206) scale(0.996264)"/>
     <use xlink:href="#CMEX10-42" transform="translate(173.488593 54.794825) scale(0.996264)"/>
     <use xlink:href="#CMEX10-40" transform="translate(173.488593 -8.966574) scale(0.996264)"/>
     <use xlink:href="#CMMI12-65" transform="translate(260.661968 124.533381) scale(0.996264)"/>
     <use xlink:href="#CMMI12-69" transform="translate(305.873969 160.68702) scale(0.697382)"/>
     <use xlink:href="#CMMI12-19" transform="translate(329.168876 160.68702) scale(0.697382)"/>
     <use xlink:href="#CMMI12-69" transform="translate(417.558682 124.533381) scale(0.996264)"/>
     <use xlink:href="#CMMI12-19" transform="translate(525.212369 124.533381) scale(0.996264)"/>
     <use xlink:href="#CMMI12-65" transform="translate(293.177106 0.00038) scale(0.996264)"/>
     <use xlink:href="#CMMI12-69" transform="translate(380.866869 0.00038) scale(0.996264)"/>
     <use xlink:href="#CMMI12-65" transform="translate(414.145471 36.154019) scale(0.697382)"/>
     <use xlink:href="#CMMI12-19" transform="translate(445.793728 36.154019) scale(0.697382)"/>
     <use xlink:href="#CMMI12-19" transform="translate(525.212369 0.00038) scale(0.996264)"/>
     <use xlink:href="#CMMI12-65" transform="translate(293.177106 -124.532621) scale(0.996264)"/>
     <use xlink:href="#CMMI12-69" transform="translate(417.558682 -124.532621) scale(0.996264)"/>
     <use xlink:href="#CMMI12-19" transform="translate(497.491721 -124.532621) scale(0.996264)"/>
     <use xlink:href="#CMMI12-65" transform="translate(556.402322 -88.378982) scale(0.697382)"/>
     <use xlink:href="#CMMI12-69" transform="translate(588.050578 -88.378982) scale(0.697382)"/>
     <use xlink:href="#CMEX10-31" transform="translate(611.843617 230.139206) scale(0.996264)"/>
     <use xlink:href="#CMEX10-43" transform="translate(611.843617 54.794825) scale(0.996264)"/>
     <use xlink:href="#CMEX10-41" transform="translate(611.843617 -8.966574) scale(0.996264)"/>
     <use xlink:href="#CMEX10-c" transform="translate(699.016992 234.124171) scale(0.996264)"/>
     <use xlink:href="#CMEX10-c" transform="translate(699.016992 174.347722) scale(0.996264)"/>
     <use xlink:href="#CMEX10-c" transform="translate(699.016992 114.571273) scale(0.996264)"/>
     <use xlink:href="#CMEX10-c" transform="translate(699.016992 54.794825) scale(0.996264)"/>
     <use xlink:href="#CMEX10-c" transform="translate(699.016992 -4.981624) scale(0.996264)"/>
     <use xlink:href="#CMEX10-c" transform="translate(699.016992 -64.758073) scale(0.996264)"/>
     <use xlink:href="#CMEX10-c" transform="translate(699.016992 -124.534521) scale(0.996264)"/>
     <use xlink:href="#CMR17-25" transform="translate(748.830253 0) scale(0.996264)"/>
     <use xlink:href="#CMR17-31" transform="translate(825.749843 0) scale(0.996264)"/>
     <use xlink:href="#CMR17-32" transform="translate(871.44032 0) scale(0.996264)"/>
    </g>
   </g>
   <g id="text_8">
    <!-- $-\Re\left[(e!)^{(i!)(\pi!)} + \cos^{\mathbf{2.0}}(\mathbf{26}^{\circ})\right]$ -->
    <g transform="translate(69.269411 410.283177) scale(0.13 -0.13)">
     <defs>
      <path id="CMEX10-68" d="M 1447 -11261 
L 2900 -11261 
L 2900 -10960 
L 1748 -10960 
L 1748 -45 
L 2900 -45 
L 2900 256 
L 1447 256 
L 1447 -11261 
z
" transform="scale(0.015625)"/>
      <path id="CMR17-63" d="M 2234 2240 
C 2112 2240 1933 2240 1933 2017 
C 1933 1838 2080 1787 2163 1787 
C 2208 1787 2394 1807 2394 2024 
C 2394 2467 1958 2803 1466 2803 
C 787 2803 211 2178 211 1363 
C 211 516 813 -64 1466 -64 
C 2259 -64 2458 677 2458 748 
C 2458 774 2451 793 2406 793 
C 2362 793 2355 787 2330 703 
C 2163 180 1798 51 1523 51 
C 1114 51 621 427 621 1369 
C 621 2338 1094 2688 1472 2688 
C 1722 2688 2093 2573 2234 2240 
z
" transform="scale(0.015625)"/>
      <path id="CMR17-6f" d="M 2758 1356 
C 2758 2176 2163 2816 1466 2816 
C 768 2816 173 2176 173 1356 
C 173 551 768 -64 1466 -64 
C 2163 -64 2758 551 2758 1356 
z
M 1466 51 
C 1165 51 909 230 762 480 
C 602 767 582 1126 582 1408 
C 582 1677 595 2010 762 2298 
C 890 2509 1139 2714 1466 2714 
C 1754 2714 1997 2554 2150 2330 
C 2349 2029 2349 1607 2349 1408 
C 2349 1158 2336 775 2163 467 
C 1984 173 1709 51 1466 51 
z
" transform="scale(0.015625)"/>
      <path id="CMR17-73" d="M 1978 2697 
C 1978 2813 1971 2819 1933 2819 
C 1907 2819 1901 2813 1824 2717 
C 1805 2691 1747 2626 1728 2601 
C 1523 2819 1235 2819 1126 2819 
C 416 2819 160 2447 160 2076 
C 160 1498 813 1365 998 1325 
C 1402 1243 1542 1217 1677 1101 
C 1760 1025 1901 884 1901 654 
C 1901 384 1747 38 1158 38 
C 602 38 403 460 288 1021 
C 269 1110 269 1117 218 1117 
C 166 1117 160 1110 160 983 
L 160 63 
C 160 -51 166 -58 205 -58 
C 237 -58 243 -51 275 0 
C 314 57 410 211 448 276 
C 576 103 800 -64 1158 -64 
C 1792 -64 2131 283 2131 784 
C 2131 1112 1958 1285 1875 1362 
C 1683 1561 1459 1606 1190 1657 
C 838 1735 390 1825 390 2217 
C 390 2383 480 2737 1126 2737 
C 1811 2737 1850 2094 1862 1888 
C 1869 1856 1901 1849 1920 1849 
C 1978 1849 1978 1869 1978 1978 
L 1978 2697 
z
" transform="scale(0.015625)"/>
      <path id="CMMI12-3a" d="M 1178 307 
C 1178 492 1024 619 870 619 
C 685 619 557 466 557 313 
C 557 128 710 0 864 0 
C 1050 0 1178 153 1178 307 
z
" transform="scale(0.015625)"/>
      <path id="CMSY10-e" d="M 2842 1600 
C 2842 2277 2272 2828 1600 2828 
C 909 2828 352 2264 352 1600 
C 352 930 909 372 1600 372 
C 2272 372 2842 923 2842 1600 
z
M 1600 628 
C 1043 628 608 1070 608 1600 
C 608 2130 1050 2572 1600 2572 
C 2131 2572 2586 2142 2586 1600 
C 2586 1058 2131 628 1600 628 
z
" transform="scale(0.015625)"/>
      <path id="CMEX10-69" d="M 1267 -10960 
L 115 -10960 
L 115 -11261 
L 1568 -11261 
L 1568 256 
L 115 256 
L 115 -45 
L 1267 -45 
L 1267 -10960 
z
" transform="scale(0.015625)"/>
     </defs>
     <use xlink:href="#CMSY10-0" transform="scale(0.996264)"/>
     <use xlink:href="#CMSY10-3c" transform="translate(77.487468 0) scale(0.996264)"/>
     <use xlink:href="#CMEX10-68" transform="translate(166.044463 110.586308) scale(0.996264)"/>
     <use xlink:href="#CMR17-28" transform="translate(213.090452 0) scale(0.996264)"/>
     <use xlink:href="#CMMI12-65" transform="translate(248.37122 0) scale(0.996264)"/>
     <use xlink:href="#CMR17-21" transform="translate(293.583221 0) scale(0.996264)"/>
     <use xlink:href="#CMR17-29" transform="translate(318.45428 0) scale(0.996264)"/>
     <use xlink:href="#CMR17-28" transform="translate(353.735048 36.153639) scale(0.697382)"/>
     <use xlink:href="#CMMI12-69" transform="translate(378.431468 36.153639) scale(0.697382)"/>
     <use xlink:href="#CMR17-21" transform="translate(401.726375 36.153639) scale(0.697382)"/>
     <use xlink:href="#CMR17-29" transform="translate(419.136034 36.153639) scale(0.697382)"/>
     <use xlink:href="#CMR17-28" transform="translate(443.832454 36.153639) scale(0.697382)"/>
     <use xlink:href="#CMMI12-19" transform="translate(468.528875 36.153639) scale(0.697382)"/>
     <use xlink:href="#CMR17-21" transform="translate(509.766096 36.153639) scale(0.697382)"/>
     <use xlink:href="#CMR17-29" transform="translate(527.175755 36.153639) scale(0.697382)"/>
     <use xlink:href="#CMR17-2b" transform="translate(574.509514 0) scale(0.996264)"/>
     <use xlink:href="#CMR17-63" transform="translate(668.36351 0) scale(0.996264)"/>
     <use xlink:href="#CMR17-6f" transform="translate(708.84917 0) scale(0.996264)"/>
     <use xlink:href="#CMR17-73" transform="translate(754.539647 0) scale(0.996264)"/>
     <use xlink:href="#CMBX12-32" transform="translate(790.340985 36.153639) scale(0.697382)"/>
     <use xlink:href="#CMMI12-3a" transform="translate(829.568698 36.153639) scale(0.697382)"/>
     <use xlink:href="#CMBX12-30" transform="translate(848.536631 36.153639) scale(0.697382)"/>
     <use xlink:href="#CMR17-28" transform="translate(888.262476 0) scale(0.996264)"/>
     <use xlink:href="#CMBX12-32" transform="translate(923.543244 0) scale(0.996264)"/>
     <use xlink:href="#CMBX12-36" transform="translate(979.583094 0) scale(0.996264)"/>
     <use xlink:href="#CMSY10-e" transform="translate(1035.622945 37.277187) scale(0.697382)"/>
     <use xlink:href="#CMR17-29" transform="translate(1070.990287 0) scale(0.996264)"/>
     <use xlink:href="#CMEX10-69" transform="translate(1106.271054 110.586308) scale(0.996264)"/>
    </g>
   </g>
   <g id="text_9">
    <!-- $\frac{1}{5}\varphi\left(\left.\vec{\nabla} \cdot \left(\begin{matrix}x^{e} \\ + i y^{\pi}\end{matrix}\right)\right|_{\text{\tiny $\begin{matrix} x=e \pi \\ y = \sfrac{e}{\pi}\end{matrix}$}} - \frac{M(\text{\Mars})}{10^{24}\mathrm{\,kg}}\right)$ -->
    <g transform="translate(30.252042 351.712915) scale(0.13 -0.13)">
     <defs>
      <path id="CMMI12-27" d="M 1926 280 
C 1818 280 1722 280 1722 312 
C 1722 325 1830 926 1869 1067 
C 2074 1884 2560 2472 3117 2472 
C 3533 2472 3725 2159 3725 1808 
C 3725 1080 2906 280 1926 280 
z
M 1651 -51 
C 1690 -57 1754 -64 1869 -64 
C 2918 -64 3885 945 3885 1954 
C 3885 2344 3712 2816 3174 2816 
C 2253 2816 1862 1519 1504 318 
C 768 458 461 848 461 1276 
C 461 1449 595 2133 966 2592 
C 1037 2676 1037 2689 1037 2702 
C 1037 2753 986 2753 973 2753 
C 800 2753 314 1820 314 1213 
C 314 497 877 107 1395 -7 
L 1062 -1088 
C 1030 -1184 1030 -1196 1030 -1222 
C 1030 -1376 1184 -1376 1197 -1376 
C 1261 -1376 1376 -1351 1427 -1223 
C 1446 -1166 1626 -178 1651 -51 
z
" transform="scale(0.015625)"/>
      <path id="CMMI12-7e" d="M 3424 3835 
C 3347 3764 3110 3540 3110 3451 
C 3110 3387 3168 3329 3232 3329 
C 3290 3329 3315 3368 3360 3432 
C 3514 3624 3686 3745 3834 3828 
C 3898 3867 3942 3886 3942 3956 
C 3942 4014 3891 4046 3853 4078 
C 3674 4200 3629 4372 3610 4449 
C 3590 4500 3571 4577 3482 4577 
C 3443 4577 3366 4552 3366 4456 
C 3366 4398 3405 4244 3526 4072 
L 1376 4072 
C 1267 4072 1158 4072 1158 3950 
C 1158 3835 1274 3835 1376 3835 
L 3424 3835 
z
" transform="scale(0.015625)"/>
      <path id="CMSY10-72" d="M 4992 4227 
C 5005 4247 5024 4291 5024 4317 
C 5024 4362 5018 4368 4870 4368 
L 454 4368 
C 307 4368 301 4362 301 4317 
C 301 4291 320 4247 333 4227 
L 2490 -93 
C 2534 -176 2554 -214 2662 -214 
C 2771 -214 2790 -176 2835 -93 
L 4992 4227 
z
M 1094 3907 
L 4608 3907 
L 2854 388 
L 1094 3907 
z
" transform="scale(0.015625)"/>
      <path id="CMSY10-1" d="M 1229 1619 
C 1229 1805 1075 1958 890 1958 
C 704 1958 550 1805 550 1619 
C 550 1433 704 1280 890 1280 
C 1075 1280 1229 1433 1229 1619 
z
" transform="scale(0.015625)"/>
      <path id="CMEX10-20" d="M 4845 -18874 
C 4845 -18854 4845 -18842 4806 -18797 
C 4192 -18054 3680 -17235 3302 -16346 
C 2464 -14387 2131 -12096 2131 -9344 
C 2131 -6618 2445 -4224 3392 -2125 
C 3763 -1312 4250 -557 4819 134 
C 4832 154 4845 166 4845 192 
C 4845 256 4800 256 4704 256 
C 4608 256 4595 256 4582 243 
C 4576 237 4179 -147 3680 -851 
C 2566 -2426 2003 -4307 1715 -6214 
C 1562 -7245 1510 -8294 1510 -9338 
C 1510 -11731 1811 -14176 2835 -16365 
C 3290 -17338 3898 -18214 4531 -18880 
C 4589 -18931 4595 -18938 4704 -18938 
C 4800 -18938 4845 -18938 4845 -18874 
z
" transform="scale(0.015625)"/>
      <path id="CMMI12-79" d="M 1683 -700 
C 1510 -939 1261 -1152 947 -1152 
C 870 -1152 563 -1152 467 -889 
C 486 -895 518 -895 531 -895 
C 723 -895 851 -729 851 -582 
C 851 -435 730 -384 634 -384 
C 531 -384 307 -458 307 -759 
C 307 -1071 582 -1286 947 -1286 
C 1587 -1286 2234 -700 2413 6 
L 3040 2485 
C 3046 2517 3059 2556 3059 2594 
C 3059 2689 2982 2753 2886 2753 
C 2829 2753 2694 2727 2643 2535 
L 2170 658 
C 2138 543 2138 530 2086 460 
C 1958 281 1747 64 1440 64 
C 1082 64 1050 415 1050 588 
C 1050 952 1222 1443 1395 1903 
C 1466 2088 1504 2178 1504 2305 
C 1504 2574 1312 2816 998 2816 
C 410 2816 173 1890 173 1839 
C 173 1814 198 1782 243 1782 
C 301 1782 307 1807 333 1897 
C 486 2433 730 2689 979 2689 
C 1037 2689 1146 2689 1146 2478 
C 1146 2312 1075 2127 979 1884 
C 666 1047 666 837 666 683 
C 666 77 1101 -64 1421 -64 
C 1606 -64 1837 -6 2061 230 
L 2067 224 
C 1971 -147 1907 -392 1683 -700 
z
" transform="scale(0.015625)"/>
      <path id="CMEX10-21" d="M 3552 -9344 
C 3552 -6950 3251 -4506 2227 -2317 
C 1773 -1344 1165 -467 531 198 
C 474 250 467 256 358 256 
C 269 256 218 256 218 192 
C 218 166 243 134 256 115 
C 870 -627 1382 -1446 1760 -2336 
C 2598 -4294 2931 -6586 2931 -9338 
C 2931 -12064 2618 -14458 1670 -16557 
C 1299 -17370 813 -18125 243 -18816 
C 237 -18829 218 -18854 218 -18874 
C 218 -18938 269 -18938 358 -18938 
C 454 -18938 467 -18938 480 -18925 
C 486 -18918 883 -18534 1382 -17830 
C 2496 -16256 3059 -14374 3347 -12467 
C 3501 -11437 3552 -10387 3552 -9344 
z
" transform="scale(0.015625)"/>
      <path id="CMMI5-78" d="M 3974 2497 
C 3680 2409 3680 2129 3680 2122 
C 3680 2015 3757 1862 3968 1862 
C 4147 1862 4365 2015 4365 2294 
C 4365 2669 3942 2816 3603 2816 
C 3187 2816 2918 2548 2790 2383 
C 2579 2746 2170 2816 1939 2816 
C 1139 2816 685 2065 685 1830 
C 685 1741 787 1741 819 1741 
C 877 1741 928 1748 954 1818 
C 1146 2440 1670 2599 1914 2599 
C 2125 2599 2368 2510 2368 2173 
C 2368 2014 2253 1577 2035 731 
C 1939 368 1645 153 1370 153 
C 1325 153 1139 153 986 255 
C 1274 357 1274 597 1274 623 
C 1274 807 1133 890 992 890 
C 832 890 595 762 595 457 
C 595 70 1030 -64 1357 -64 
C 1709 -64 1997 140 2150 369 
C 2406 -13 2816 -64 3014 -64 
C 3821 -64 4275 693 4275 921 
C 4275 1011 4166 1011 4141 1011 
C 4032 1011 4019 972 4000 915 
C 3814 344 3322 153 3040 153 
C 2848 153 2586 223 2586 578 
C 2586 655 2586 699 2637 915 
C 2746 1360 2918 2065 2970 2180 
C 3053 2345 3264 2599 3590 2599 
C 3610 2599 3827 2599 3974 2497 
z
" transform="scale(0.015625)"/>
      <path id="CMR5-3d" d="M 5702 2176 
C 5792 2176 5952 2176 5952 2356 
C 5952 2536 5766 2536 5670 2536 
L 902 2536 
C 806 2536 621 2536 621 2356 
C 621 2176 787 2176 870 2176 
L 5702 2176 
z
M 5670 640 
C 5766 640 5952 640 5952 820 
C 5952 1000 5792 1000 5702 1000 
L 870 1000 
C 781 1000 621 1000 621 820 
C 621 640 806 640 902 640 
L 5670 640 
z
" transform="scale(0.015625)"/>
      <path id="CMMI5-65" d="M 1824 1472 
C 2470 1472 3616 1472 3616 2225 
C 3616 2560 3283 2816 2694 2816 
C 1824 2816 717 2237 717 1182 
C 717 604 1094 -64 2067 -64 
C 2189 -64 2701 -64 3130 102 
C 3558 266 3814 558 3814 628 
C 3814 679 3731 774 3674 774 
C 3642 774 3635 767 3533 667 
C 3219 317 2650 153 2074 153 
C 1549 153 1299 485 1299 976 
C 1299 1041 1299 1211 1363 1472 
L 1824 1472 
z
M 1421 1650 
C 1709 2535 2496 2599 2688 2599 
C 3008 2599 3290 2472 3290 2236 
C 3290 1650 2093 1650 1792 1650 
L 1421 1650 
z
" transform="scale(0.015625)"/>
      <path id="CMMI5-19" d="M 4512 2268 
C 4627 2268 4691 2268 4781 2331 
C 4819 2369 4883 2459 4883 2548 
C 4883 2752 4691 2752 4582 2752 
L 1837 2752 
C 1696 2752 1408 2752 1030 2433 
C 858 2280 570 1955 570 1879 
C 570 1790 659 1790 698 1790 
C 787 1790 787 1796 838 1853 
C 1056 2127 1363 2268 1754 2268 
L 2208 2268 
C 1978 1471 1651 809 1427 407 
C 1331 242 1331 229 1331 165 
C 1331 19 1446 -64 1574 -64 
C 1843 -64 1933 229 2080 745 
C 2227 1242 2342 1701 2490 2268 
L 3328 2268 
C 3302 2172 3123 1478 3123 974 
C 3123 535 3283 -64 3565 -64 
C 3718 -64 3898 82 3898 248 
C 3898 318 3872 350 3827 426 
C 3533 904 3533 1465 3533 1580 
C 3533 1796 3565 2051 3603 2268 
L 4512 2268 
z
" transform="scale(0.015625)"/>
      <path id="CMMI5-79" d="M 4237 2376 
C 4262 2472 4262 2516 4262 2523 
C 4262 2663 4147 2746 4026 2746 
C 3770 2746 3718 2524 3674 2352 
L 3539 1824 
L 3341 1030 
C 3315 947 3283 813 3277 776 
C 3270 750 2925 153 2381 153 
C 2086 153 1856 293 1856 699 
C 1856 1049 2048 1513 2234 1971 
C 2266 2047 2310 2149 2310 2256 
C 2310 2568 2010 2816 1613 2816 
C 941 2816 582 2002 582 1830 
C 582 1741 685 1741 717 1741 
C 826 1741 832 1773 864 1869 
C 998 2307 1299 2599 1587 2599 
C 1709 2599 1779 2529 1779 2358 
C 1779 2231 1741 2142 1696 2027 
C 1382 1271 1325 1042 1325 788 
C 1325 82 1920 -64 2349 -64 
C 2714 -64 2982 114 3142 248 
C 3053 -110 2982 -391 2682 -699 
C 2534 -845 2234 -1088 1837 -1088 
C 1722 -1088 1485 -1069 1338 -934 
C 1626 -864 1658 -615 1658 -550 
C 1658 -364 1510 -288 1376 -288 
C 1190 -288 973 -442 973 -736 
C 973 -1056 1299 -1305 1837 -1305 
C 2566 -1305 3430 -821 3635 -5 
L 4237 2376 
z
" transform="scale(0.015625)"/>
      <path id="CMMI5-3d" d="M 3866 4449 
C 3910 4545 3910 4570 3910 4590 
C 3910 4685 3827 4768 3731 4768 
C 3629 4768 3578 4698 3539 4609 
L 845 -1281 
C 800 -1377 800 -1402 800 -1421 
C 800 -1517 883 -1600 979 -1600 
C 1082 -1600 1133 -1530 1171 -1440 
L 3866 4449 
z
" transform="scale(0.015625)"/>
      <path id="CMMI12-4d" d="M 5811 3886 
C 5869 4103 5882 4167 6336 4167 
C 6458 4167 6515 4167 6515 4288 
C 6515 4352 6470 4352 6349 4352 
L 5581 4352 
C 5421 4352 5414 4346 5344 4243 
L 3008 562 
L 2528 4211 
C 2509 4352 2502 4352 2336 4352 
L 1542 4352 
C 1421 4352 1363 4352 1363 4231 
C 1363 4167 1421 4167 1517 4167 
C 1907 4167 1907 4116 1907 4046 
C 1907 4034 1907 3995 1882 3899 
L 1062 634 
C 986 327 838 186 410 186 
C 390 186 314 186 314 73 
C 314 0 371 0 397 0 
C 525 0 851 0 979 0 
L 1286 0 
C 1376 0 1485 0 1574 0 
C 1619 0 1690 0 1690 122 
C 1690 180 1626 186 1600 186 
C 1389 186 1184 224 1184 454 
C 1184 518 1184 524 1210 613 
L 2093 4129 
L 2099 4129 
L 2630 172 
C 2650 19 2656 0 2714 0 
C 2784 0 2816 51 2848 109 
L 5421 4161 
L 5427 4161 
L 4499 473 
C 4442 250 4429 186 3981 186 
C 3859 186 3795 186 3795 70 
C 3795 0 3853 0 3891 0 
C 4000 0 4128 0 4237 0 
L 4992 0 
C 5101 0 5235 0 5344 0 
C 5395 0 5466 0 5466 122 
C 5466 186 5408 186 5312 186 
C 4922 186 4922 234 4922 294 
C 4922 301 4922 345 4934 396 
L 5811 3886 
z
" transform="scale(0.015625)"/>
      <path id="MarVoSym-c4" d="M 1984 3610 
C 998 3610 269 2784 269 1632 
C 301 659 1120 -51 2176 -51 
C 3213 0 3930 762 3930 1760 
C 3930 2106 3821 2426 3610 2720 
L 3610 2855 
L 4570 3648 
L 4621 2637 
L 5408 4563 
L 5274 4563 
L 3475 3949 
L 4397 3866 
L 3437 3034 
C 3098 3418 2611 3610 1984 3610 
z
M 2253 262 
C 1254 813 973 1510 973 2547 
C 1171 3066 1434 3322 1754 3322 
C 2630 3194 3309 2246 3309 1152 
C 3296 646 2944 262 2400 262 
L 2253 269 
L 2253 262 
z
" transform="scale(0.015625)"/>
      <path id="CMR17-30" d="M 2688 2025 
C 2688 2416 2682 3080 2413 3591 
C 2176 4039 1798 4198 1466 4198 
C 1158 4198 768 4058 525 3597 
C 269 3118 243 2524 243 2025 
C 243 1661 250 1106 448 619 
C 723 -39 1216 -128 1466 -128 
C 1760 -128 2208 -7 2470 600 
C 2662 1042 2688 1559 2688 2025 
z
M 1466 -26 
C 1056 -26 813 325 723 812 
C 653 1188 653 1738 653 2096 
C 653 2588 653 2997 736 3387 
C 858 3929 1216 4096 1466 4096 
C 1728 4096 2067 3923 2189 3400 
C 2272 3036 2278 2607 2278 2096 
C 2278 1680 2278 1169 2202 792 
C 2067 95 1690 -26 1466 -26 
z
" transform="scale(0.015625)"/>
      <path id="CMR17-34" d="M 2150 4122 
C 2150 4256 2144 4256 2029 4256 
L 128 1254 
L 128 1088 
L 1779 1088 
L 1779 457 
C 1779 224 1766 160 1318 160 
L 1197 160 
L 1197 0 
C 1402 0 1747 0 1965 0 
C 2182 0 2528 0 2733 0 
L 2733 160 
L 2611 160 
C 2163 160 2150 224 2150 457 
L 2150 1088 
L 2803 1088 
L 2803 1254 
L 2150 1254 
L 2150 4122 
z
M 1798 3703 
L 1798 1254 
L 256 1254 
L 1798 3703 
z
" transform="scale(0.015625)"/>
      <path id="CMR17-6b" d="M 1670 1673 
C 1664 1686 1632 1724 1632 1743 
C 1632 1756 2086 2171 2144 2222 
C 2509 2528 2739 2560 2906 2560 
L 2906 2733 
C 2867 2733 2854 2733 2848 2720 
L 2534 2720 
C 2355 2720 2080 2720 1907 2733 
L 1907 2566 
C 1997 2559 2061 2508 2061 2419 
C 2061 2291 1933 2170 1926 2170 
L 960 1289 
L 960 4396 
L 198 4326 
L 198 4160 
C 576 4160 634 4122 634 3817 
L 634 426 
C 634 184 608 153 198 153 
L 198 -13 
C 352 0 634 0 794 0 
C 954 0 1235 0 1389 -13 
L 1389 153 
C 979 153 954 178 954 428 
L 954 1130 
L 1395 1532 
L 2042 574 
C 2118 459 2182 369 2182 286 
C 2182 172 2067 153 1990 153 
L 1990 -13 
C 2144 0 2419 0 2579 0 
C 2694 0 2931 0 3040 0 
L 3040 153 
C 2739 153 2669 210 2477 491 
L 1670 1673 
z
" transform="scale(0.015625)"/>
      <path id="CMR17-67" d="M 710 1164 
C 832 1068 1043 960 1299 960 
C 1805 960 2240 1357 2240 1888 
C 2240 2054 2189 2310 1997 2509 
C 2176 2692 2438 2752 2586 2752 
C 2611 2752 2650 2752 2682 2734 
C 2656 2728 2598 2703 2598 2605 
C 2598 2527 2656 2471 2739 2471 
C 2835 2471 2886 2533 2886 2614 
C 2886 2731 2790 2854 2586 2854 
C 2330 2854 2106 2738 1926 2580 
C 1734 2753 1504 2816 1299 2816 
C 794 2816 358 2419 358 1888 
C 358 1522 570 1292 634 1228 
C 442 1004 442 743 442 711 
C 442 545 506 302 723 168 
C 390 85 128 -169 128 -486 
C 128 -943 736 -1280 1466 -1280 
C 2170 -1280 2803 -956 2803 -479 
C 2803 384 1856 384 1363 384 
C 1216 384 954 384 922 391 
C 723 423 589 602 589 826 
C 589 883 589 1024 710 1164 
z
M 1299 1068 
C 736 1068 736 1760 736 1889 
C 736 2016 736 2708 1299 2708 
C 1862 2708 1862 2016 1862 1889 
C 1862 1760 1862 1068 1299 1068 
z
M 1466 -1171 
C 826 -1171 384 -835 384 -486 
C 384 -289 493 -105 634 -4 
C 794 104 858 104 1293 104 
C 1818 104 2547 104 2547 -486 
C 2547 -835 2106 -1171 1466 -1171 
z
" transform="scale(0.015625)"/>
     </defs>
     <use xlink:href="#CMR17-31" transform="translate(0 39.226102) scale(0.697382)"/>
     <use xlink:href="#CMR17-35" transform="translate(0 -34.355253) scale(0.697382)"/>
     <use xlink:href="#CMMI12-27" transform="translate(33.178696 0) scale(0.996264)"/>
     <use xlink:href="#CMEX10-30" transform="translate(113.686165 200.250981) scale(0.996264)"/>
     <use xlink:href="#CMEX10-40" transform="translate(113.686165 20.921651) scale(0.996264)"/>
     <use xlink:href="#CMMI12-7e" transform="translate(211.516505 25.183181) scale(0.996264)"/>
     <use xlink:href="#CMSY10-72" transform="translate(202.055053 0) scale(0.996264)"/>
     <use xlink:href="#CMSY10-1" transform="translate(307.216514 0) scale(0.996264)"/>
     <use xlink:href="#CMEX10-20" transform="translate(357.029806 170.362757) scale(0.996264)"/>
     <use xlink:href="#CMMI12-78" transform="translate(491.044554 62.266881) scale(0.996264)"/>
     <use xlink:href="#CMMI12-65" transform="translate(546.478614 98.42052) scale(0.697382)"/>
     <use xlink:href="#CMR17-2b" transform="translate(435.901016 -62.266121) scale(0.996264)"/>
     <use xlink:href="#CMMI12-69" transform="translate(507.615804 -62.266121) scale(0.996264)"/>
     <use xlink:href="#CMMI12-79" transform="translate(540.894406 -62.266121) scale(0.996264)"/>
     <use xlink:href="#CMMI12-19" transform="translate(592.033187 -26.112482) scale(0.697382)"/>
     <use xlink:href="#CMEX10-21" transform="translate(633.76854 170.362757) scale(0.996264)"/>
     <use xlink:href="#CMEX10-c" transform="translate(712.63975 174.347722) scale(0.996264)"/>
     <use xlink:href="#CMEX10-c" transform="translate(712.63975 114.571273) scale(0.996264)"/>
     <use xlink:href="#CMEX10-c" transform="translate(712.63975 54.794825) scale(0.996264)"/>
     <use xlink:href="#CMEX10-c" transform="translate(712.63975 -4.981624) scale(0.996264)"/>
     <use xlink:href="#CMEX10-c" transform="translate(712.63975 -64.758073) scale(0.996264)"/>
     <use xlink:href="#CMMI5-78" transform="translate(745.854337 -124.982807) scale(0.049813)"/>
     <use xlink:href="#CMR5-3d" transform="translate(751.835022 -124.982807) scale(0.049813)"/>
     <use xlink:href="#CMMI5-65" transform="translate(758.991915 -124.982807) scale(0.049813)"/>
     <use xlink:href="#CMMI5-19" transform="translate(762.364354 -124.982807) scale(0.049813)"/>
     <use xlink:href="#CMMI5-79" transform="translate(745.848606 -130.960391) scale(0.049813)"/>
     <use xlink:href="#CMR5-3d" transform="translate(751.703603 -130.960391) scale(0.049813)"/>
     <use xlink:href="#CMMI5-65" transform="translate(758.860496 -129.839594) scale(0.034869)"/>
     <use xlink:href="#CMMI5-3d" transform="translate(760.813773 -130.960391) scale(0.049813)"/>
     <use xlink:href="#CMMI5-19" transform="translate(763.665764 -130.960391) scale(0.034869)"/>
     <use xlink:href="#CMSY10-0" transform="translate(789.326342 0) scale(0.996264)"/>
     <use xlink:href="#CMMI12-4d" transform="translate(892.158541 48.260247) scale(0.697382)"/>
     <use xlink:href="#CMR17-28" transform="translate(965.504283 48.260247) scale(0.697382)"/>
     <use xlink:href="#MarVoSym-c4" transform="translate(990.200703 48.260247) scale(0.697382)"/>
     <use xlink:href="#CMR17-29" transform="translate(1051.918997 48.260247) scale(0.697382)"/>
     <use xlink:href="#CMR17-31" transform="translate(890.148531 -34.355253) scale(0.697382)"/>
     <use xlink:href="#CMR17-30" transform="translate(922.131712 -34.355253) scale(0.697382)"/>
     <use xlink:href="#CMR17-32" transform="translate(954.114894 -14.20868) scale(0.498132)"/>
     <use xlink:href="#CMR17-34" transform="translate(976.960133 -14.20868) scale(0.498132)"/>
     <use xlink:href="#CMR17-6b" transform="translate(1011.926528 -34.355253) scale(0.697382)"/>
     <use xlink:href="#CMR17-67" transform="translate(1045.731416 -34.355253) scale(0.697382)"/>
     <use xlink:href="#CMEX10-31" transform="translate(1079.820926 200.250981) scale(0.996264)"/>
     <use xlink:href="#CMEX10-41" transform="translate(1079.820926 20.921651) scale(0.996264)"/>
     <path d="M 0 22.914133 
L 31.983182 22.914133 
L 31.983182 26.899083 
L 0 26.899083 
L 0 22.914133 
z
"/>
     <path d="M 890.148531 22.914133 
L 1078.625412 22.914133 
L 1078.625412 26.899083 
L 890.148531 26.899083 
L 890.148531 22.914133 
z
"/>
    </g>
   </g>
   <g id="text_10">
    <!-- $e+2\pi$ -->
    <g transform="translate(43.684263 294.837858) scale(0.13 -0.13)">
     <use xlink:href="#CMMI12-65" transform="scale(0.996264)"/>
     <use xlink:href="#CMR17-2b" transform="translate(67.351208 0) scale(0.996264)"/>
     <use xlink:href="#CMR17-32" transform="translate(161.205203 0) scale(0.996264)"/>
     <use xlink:href="#CMMI12-19" transform="translate(206.895681 0) scale(0.996264)"/>
    </g>
   </g>
   <g id="text_11">
    <!-- $\Re\left\{e^{! \pi} - \left(\mathbf{\frac{20}{26}}\right)^{-2}\right\}$ -->
    <g transform="translate(70.486113 237.23785) scale(0.13 -0.13)">
     <defs>
      <path id="CMEX10-6e" d="M 2374 -7270 
C 2374 -6861 2374 -6771 2310 -6592 
C 2112 -6010 1549 -5670 1126 -5504 
C 1862 -5190 2227 -4762 2342 -4314 
C 2362 -4237 2374 -4122 2374 -4090 
L 2374 -1210 
C 2374 -678 2797 -275 3398 -19 
C 3494 26 3501 32 3501 128 
C 3501 250 3494 256 3373 256 
C 3187 256 2707 19 2451 -179 
C 2234 -352 1894 -710 1888 -1146 
C 1882 -1658 1888 -2176 1888 -2688 
L 1888 -3686 
C 1888 -4250 1888 -4461 1555 -4858 
C 1478 -4947 1293 -5146 851 -5357 
C 768 -5395 762 -5402 762 -5498 
C 762 -5600 768 -5606 896 -5664 
C 1574 -5978 1888 -6522 1888 -6925 
L 1888 -9587 
C 1888 -9888 1888 -10272 2214 -10605 
C 2355 -10746 2490 -10880 2797 -11040 
C 2874 -11085 3200 -11258 3373 -11258 
C 3494 -11258 3501 -11251 3501 -11130 
C 3501 -11040 3501 -11021 3443 -11002 
C 3066 -10842 2496 -10541 2387 -9946 
C 2374 -9875 2374 -9658 2374 -9510 
L 2374 -7270 
z
" transform="scale(0.015625)"/>
      <path id="CMEX10-0" d="M 2643 -7354 
C 2643 -7328 2630 -7315 2618 -7296 
C 2323 -6982 1888 -6464 1619 -5421 
C 1472 -4838 1414 -4179 1414 -3584 
C 1414 -1901 1818 -723 2586 109 
C 2643 166 2643 179 2643 192 
C 2643 256 2592 256 2566 256 
C 2470 256 2125 -128 2042 -224 
C 1389 -998 973 -2150 973 -3578 
C 973 -4486 1133 -5773 1971 -6854 
C 2035 -6931 2451 -7418 2566 -7418 
C 2592 -7418 2643 -7418 2643 -7354 
z
" transform="scale(0.015625)"/>
      <path id="CMEX10-1" d="M 1952 -3584 
C 1952 -2675 1792 -1389 954 -307 
C 890 -230 474 256 358 256 
C 326 256 282 243 282 192 
C 282 166 294 147 320 128 
C 627 -205 1043 -723 1306 -1741 
C 1453 -2323 1510 -2982 1510 -3578 
C 1510 -4224 1453 -4877 1286 -5504 
C 1043 -6400 666 -6912 339 -7270 
C 282 -7328 282 -7341 282 -7354 
C 282 -7405 326 -7418 358 -7418 
C 454 -7418 806 -7027 883 -6938 
C 1536 -6163 1952 -5011 1952 -3584 
z
" transform="scale(0.015625)"/>
      <path id="CMEX10-6f" d="M 2374 -7315 
C 2374 -6752 2374 -6541 2707 -6144 
C 2778 -6067 2976 -5850 3411 -5645 
C 3494 -5606 3501 -5600 3501 -5504 
C 3501 -5434 3501 -5421 3488 -5395 
C 3482 -5389 3475 -5389 3366 -5338 
C 2694 -5024 2374 -4486 2374 -4077 
L 2374 -1414 
C 2374 -1114 2374 -730 2048 -397 
C 1907 -256 1773 -122 1466 38 
C 1402 70 1062 256 896 256 
C 774 256 762 250 762 128 
C 762 45 762 19 819 -6 
C 1069 -109 1760 -397 1875 -1056 
C 1888 -1126 1888 -1344 1888 -1491 
L 1888 -3731 
C 1888 -4141 1888 -4230 1952 -4410 
C 2150 -4992 2714 -5331 3136 -5498 
C 2400 -5811 2035 -6240 1920 -6688 
C 1901 -6765 1888 -6880 1888 -6912 
L 1888 -9792 
C 1888 -10310 1485 -10714 864 -10982 
C 768 -11027 762 -11034 762 -11130 
C 762 -11251 774 -11258 896 -11258 
C 1069 -11258 1542 -11027 1811 -10822 
C 2029 -10650 2368 -10291 2374 -9856 
C 2381 -9344 2374 -8826 2374 -8314 
L 2374 -7315 
z
" transform="scale(0.015625)"/>
     </defs>
     <use xlink:href="#CMSY10-3c" transform="scale(0.996264)"/>
     <use xlink:href="#CMEX10-6e" transform="translate(88.556995 110.586308) scale(0.996264)"/>
     <use xlink:href="#CMMI12-65" transform="translate(154.974814 0) scale(0.996264)"/>
     <use xlink:href="#CMR17-21" transform="translate(200.186815 36.153639) scale(0.697382)"/>
     <use xlink:href="#CMMI12-19" transform="translate(217.596474 36.153639) scale(0.697382)"/>
     <use xlink:href="#CMSY10-0" transform="translate(281.471034 0) scale(0.996264)"/>
     <use xlink:href="#CMEX10-0" transform="translate(381.097709 80.698084) scale(0.996264)"/>
     <use xlink:href="#CMBX12-32" transform="translate(427.955576 39.226102) scale(0.697382)"/>
     <use xlink:href="#CMBX12-30" transform="translate(467.183289 39.226102) scale(0.697382)"/>
     <use xlink:href="#CMBX12-32" transform="translate(427.955576 -34.355253) scale(0.697382)"/>
     <use xlink:href="#CMBX12-36" transform="translate(467.183289 -34.355253) scale(0.697382)"/>
     <use xlink:href="#CMEX10-1" transform="translate(507.606516 80.698084) scale(0.996264)"/>
     <use xlink:href="#CMSY10-0" transform="translate(553.26887 57.756542) scale(0.697382)"/>
     <use xlink:href="#CMR17-32" transform="translate(607.509863 57.756542) scale(0.697382)"/>
     <use xlink:href="#CMEX10-6f" transform="translate(639.991177 110.586308) scale(0.996264)"/>
     <path d="M 427.955576 22.914133 
L 506.411002 22.914133 
L 506.411002 26.899083 
L 427.955576 26.899083 
L 427.955576 22.914133 
z
"/>
    </g>
   </g>
   <g id="text_12">
    <!-- $e^{\sqrt{\ln(100 \pi)}}$ -->
    <g transform="translate(121.941489 169.534429) scale(0.13 -0.13)">
     <defs>
      <path id="CMSY10-70" d="M 2490 -5472 
L 1363 -2982 
C 1318 -2880 1286 -2880 1267 -2880 
C 1261 -2880 1229 -2880 1158 -2931 
L 550 -3392 
C 467 -3456 467 -3475 467 -3494 
C 467 -3526 486 -3565 531 -3565 
C 570 -3565 678 -3475 749 -3424 
C 787 -3393 883 -3323 954 -3271 
L 2214 -6042 
C 2259 -6144 2291 -6144 2349 -6144 
C 2445 -6144 2464 -6106 2509 -6016 
L 5414 0 
C 5459 90 5459 115 5459 128 
C 5459 192 5408 256 5331 256 
C 5280 256 5235 224 5184 122 
L 2490 -5472 
z
" transform="scale(0.015625)"/>
      <path id="CMR17-6c" d="M 979 4396 
L 218 4326 
L 218 4160 
C 595 4160 653 4122 653 3817 
L 653 426 
C 653 184 627 153 218 153 
L 218 -13 
C 371 0 653 0 813 0 
C 979 0 1261 0 1414 -13 
L 1414 153 
C 1005 153 979 178 979 426 
L 979 4396 
z
" transform="scale(0.015625)"/>
      <path id="CMR17-6e" d="M 2656 1933 
C 2656 2259 2592 2790 1837 2790 
C 1331 2790 1069 2400 973 2144 
L 966 2144 
L 966 2790 
L 211 2720 
L 211 2554 
C 589 2554 646 2515 646 2208 
L 646 428 
C 646 184 621 153 211 153 
L 211 -13 
C 365 0 646 0 813 0 
C 979 0 1267 0 1421 -13 
L 1421 153 
C 1011 153 986 178 986 428 
L 986 1658 
C 986 2247 1344 2688 1792 2688 
C 2266 2688 2317 2266 2317 1958 
L 2317 428 
C 2317 184 2291 153 1882 153 
L 1882 -13 
C 2035 0 2317 0 2483 0 
C 2650 0 2938 0 3091 -13 
L 3091 153 
C 2682 153 2656 178 2656 428 
L 2656 1933 
z
" transform="scale(0.015625)"/>
     </defs>
     <use xlink:href="#CMMI12-65" transform="scale(0.996264)"/>
     <use xlink:href="#CMSY10-70" transform="translate(45.212001 106.365093) scale(0.996264)"/>
     <use xlink:href="#CMR17-6c" transform="translate(128.234255 39.368649) scale(0.697382)"/>
     <use xlink:href="#CMR17-6e" transform="translate(145.643914 39.368649) scale(0.697382)"/>
     <use xlink:href="#CMR17-28" transform="translate(181.270522 39.368649) scale(0.697382)"/>
     <use xlink:href="#CMR17-31" transform="translate(205.966943 39.368649) scale(0.697382)"/>
     <use xlink:href="#CMR17-30" transform="translate(237.950125 39.368649) scale(0.697382)"/>
     <use xlink:href="#CMR17-30" transform="translate(269.933307 39.368649) scale(0.697382)"/>
     <use xlink:href="#CMMI12-19" transform="translate(301.916489 39.368649) scale(0.697382)"/>
     <use xlink:href="#CMR17-29" transform="translate(343.15371 39.368649) scale(0.697382)"/>
     <path d="M 128.234255 106.365093 
L 367.85013 106.365093 
L 367.85013 110.350042 
L 128.234255 110.350042 
L 128.234255 106.365093 
z
"/>
    </g>
   </g>
  </g>
 </g>
 <defs>
  <clipPath id="p0990d8e85d">
   <rect x="3.6" y="3.6" width="576" height="576"/>
  </clipPath>
 </defs>
</svg>
